<svg width="14" height="14" viewBox="0 0 14 14" fill="none" xmlns="http://www.w3.org/2000/svg">
<path d="M11.0834 2.33366H9.91675V1.75033C9.91675 1.59562 9.85529 1.44724 9.74589 1.33785C9.6365 1.22845 9.48812 1.16699 9.33342 1.16699C9.17871 1.16699 9.03033 1.22845 8.92094 1.33785C8.81154 1.44724 8.75008 1.59562 8.75008 1.75033V2.33366H5.25008V1.75033C5.25008 1.59562 5.18862 1.44724 5.07923 1.33785C4.96983 1.22845 4.82146 1.16699 4.66675 1.16699C4.51204 1.16699 4.36367 1.22845 4.25427 1.33785C4.14487 1.44724 4.08341 1.59562 4.08341 1.75033V2.33366H2.91675C2.45262 2.33366 2.0075 2.51803 1.67931 2.84622C1.35112 3.17441 1.16675 3.61953 1.16675 4.08366V11.0837C1.16675 11.5478 1.35112 11.9929 1.67931 12.3211C2.0075 12.6493 2.45262 12.8337 2.91675 12.8337H11.0834C11.5475 12.8337 11.9927 12.6493 12.3209 12.3211C12.649 11.9929 12.8334 11.5478 12.8334 11.0837V4.08366C12.8334 3.61953 12.649 3.17441 12.3209 2.84622C11.9927 2.51803 11.5475 2.33366 11.0834 2.33366ZM11.6667 11.0837C11.6667 11.2384 11.6053 11.3867 11.4959 11.4961C11.3865 11.6055 11.2381 11.667 11.0834 11.667H2.91675C2.76204 11.667 2.61367 11.6055 2.50427 11.4961C2.39487 11.3867 2.33341 11.2384 2.33341 11.0837V7.00033H11.6667V11.0837ZM11.6667 5.83366H2.33341V4.08366C2.33341 3.92895 2.39487 3.78058 2.50427 3.67118C2.61367 3.56178 2.76204 3.50033 2.91675 3.50033H4.08341V4.08366C4.08341 4.23837 4.14487 4.38674 4.25427 4.49614C4.36367 4.60553 4.51204 4.66699 4.66675 4.66699C4.82146 4.66699 4.96983 4.60553 5.07923 4.49614C5.18862 4.38674 5.25008 4.23837 5.25008 4.08366V3.50033H8.75008V4.08366C8.75008 4.23837 8.81154 4.38674 8.92094 4.49614C9.03033 4.60553 9.17871 4.66699 9.33342 4.66699C9.48812 4.66699 9.6365 4.60553 9.74589 4.49614C9.85529 4.38674 9.91675 4.23837 9.91675 4.08366V3.50033H11.0834C11.2381 3.50033 11.3865 3.56178 11.4959 3.67118C11.6053 3.78058 11.6667 3.92895 11.6667 4.08366V5.83366Z" fill="#85B3EB"/>
</svg>
