<svg width="36" height="36" viewBox="0 0 36 36" fill="none" xmlns="http://www.w3.org/2000/svg">
<path d="M18 12C18 12 18 12 19.14 10.5C20.46 8.76 22.41 7.5 24.75 7.5C28.485 7.5 31.5 10.515 31.5 14.25C31.5 15.645 31.08 16.935 30.36 18C29.145 19.815 18 31.5 18 31.5C18 31.5 6.855 19.815 5.64 18C4.92 16.935 4.5 15.645 4.5 14.25C4.5 10.515 7.515 7.5 11.25 7.5C13.59 7.5 15.555 8.76 16.86 10.5C18 12 18 12 18 12Z" fill="#FF0000"/>
<path d="M18 12C18 12 18 12 16.86 10.5C15.54 8.76 13.59 7.5 11.25 7.5C7.515 7.5 4.5 10.515 4.5 14.25C4.5 15.645 4.92 16.935 5.64 18C6.855 19.815 18 31.5 18 31.5M18 12C18 12 18 12 19.14 10.5C20.46 8.76 22.41 7.5 24.75 7.5C28.485 7.5 31.5 10.515 31.5 14.25C31.5 15.645 31.08 16.935 30.36 18C29.145 19.815 18 31.5 18 31.5" stroke="#FF0000" stroke-linecap="round" stroke-linejoin="round"/>
</svg>
